FrauncesItalic-LightOpMinGoofyMax.ufo
<glyph name="exclam" format="2">
  <advance width="547"/>
  <unicode hex="0021"/>
  <outline>
    <contour>
      <point x="552" y="1459" type="curve" smooth="yes"/>
      <point x="512" y="1459"/>
      <point x="490" y="1427"/>
      <point x="479" y="1388" type="curve" smooth="yes"/>
      <point x="476" y="1377"/>
      <point x="469" y="1353"/>
      <point x="464" y="1333" type="curve" smooth="yes"/>
      <point x="267" y="508" type="line" smooth="yes"/>
      <point x="258" y="470"/>
      <point x="263" y="456"/>
      <point x="283" y="456" type="curve" smooth="yes"/>
      <point x="304" y="456"/>
      <point x="316" y="471"/>
      <point x="327" y="510" type="curve" smooth="yes"/>
      <point x="572" y="1333" type="line" smooth="yes"/>
      <point x="579" y="1353"/>
      <point x="584" y="1377"/>
      <point x="587" y="1388" type="curve" smooth="yes"/>
      <point x="598" y="1427"/>
      <point x="593" y="1459"/>
    </contour>
    <component base="period" xOffset="20"/>
  </outline>
</glyph>
<glyph name="ampersand" format="2">
  <advance width="1318"/>
  <unicode hex="0026"/>
  <outline>
    <contour>
      <point x="187" y="202" type="line" smooth="yes"/>
      <point x="27" y="68"/>
      <point x="-48" y="-78"/>
      <point x="-48" y="-269" type="curve" smooth="yes"/>
      <point x="-48" y="-369"/>
      <point x="-10" y="-410"/>
      <point x="38" y="-410" type="curve" smooth="yes"/>
      <point x="74" y="-410"/>
      <point x="102" y="-381"/>
      <point x="102" y="-346" type="curve" smooth="yes"/>
      <point x="102" y="-296"/>
      <point x="34" y="-273"/>
      <point x="34" y="-192" type="curve" smooth="yes"/>
      <point x="34" y="-69"/>
      <point x="80" y="48"/>
      <point x="218" y="163" type="curve" smooth="yes"/>
      <point x="1152" y="945" type="line" smooth="yes"/>
      <point x="1333" y="1096"/>
      <point x="1390" y="1201"/>
      <point x="1390" y="1336" type="curve" smooth="yes"/>
      <point x="1390" y="1420"/>
      <point x="1343" y="1470"/>
      <point x="1294" y="1470" type="curve" smooth="yes"/>
      <point x="1262" y="1470"/>
      <point x="1240" y="1438"/>
      <point x="1240" y="1408" type="curve" smooth="yes"/>
      <point x="1240" y="1360"/>
      <point x="1303" y="1331"/>
      <point x="1303" y="1270" type="curve" smooth="yes"/>
      <point x="1303" y="1183"/>
      <point x="1257" y="1100"/>
      <point x="1134" y="997" type="curve" smooth="yes"/>
    </contour>
    <contour>
      <point x="1066" y="408" type="curve" smooth="yes"/>
      <point x="1066" y="213"/>
      <point x="873" y="36"/>
      <point x="649" y="36" type="curve" smooth="yes"/>
      <point x="411" y="36"/>
      <point x="264" y="191"/>
      <point x="310" y="510" type="curve" smooth="yes"/>
      <point x="352" y="804"/>
      <point x="544" y="1041"/>
      <point x="759" y="1041" type="curve" smooth="yes"/>
      <point x="889.3507853403141" y="1041.0"/>
      <point x="952.0" y="965.8916256157636"/>
      <point x="952" y="848" type="curve" smooth="yes"/>
      <point x="952" y="814"/>
      <point x="932" y="774"/>
      <point x="904" y="741" type="curve"/>
      <point x="932" y="756"/>
      <point x="959" y="762"/>
      <point x="998" y="762" type="curve" smooth="yes"/>
      <point x="1025" y="762"/>
      <point x="1041" y="801"/>
      <point x="1041" y="850" type="curve" smooth="yes"/>
      <point x="1041.0" y="986.2971887550201"/>
      <point x="950.3023255813954" y="1089.0"/>
      <point x="781" y="1089" type="curve" smooth="yes"/>
      <point x="510" y="1089"/>
      <point x="283" y="846"/>
      <point x="225" y="507" type="curve" smooth="yes"/>
      <point x="169" y="180"/>
      <point x="355" y="-19"/>
      <point x="619" y="-19" type="curve" smooth="yes"/>
      <point x="950" y="-19"/>
      <point x="1168" y="263"/>
      <point x="1168" y="521" type="curve" smooth="yes"/>
      <point x="1168" y="584"/>
      <point x="1149" y="620"/>
      <point x="1106" y="620" type="curve" smooth="yes"/>
      <point x="1069" y="620"/>
      <point x="1046" y="587"/>
      <point x="1046" y="541" type="curve" smooth="yes"/>
      <point x="1046" y="502"/>
      <point x="1066" y="475"/>
    </contour>
  </outline>
</glyph>
<glyph name="slash" format="2">
  <advance width="835"/>
  <unicode hex="002F"/>
  <outline>
    <contour>
      <point x="491" y="606" type="curve" smooth="yes"/>
      <point x="607" y="837"/>
      <point x="873" y="1359"/>
      <point x="983" y="1582" type="curve" smooth="yes"/>
      <point x="995" y="1607"/>
      <point x="992" y="1645"/>
      <point x="982" y="1648" type="curve" smooth="yes"/>
      <point x="960" y="1654"/>
      <point x="937" y="1638"/>
      <point x="922" y="1607" type="curve" smooth="yes"/>
      <point x="791" y="1343"/>
      <point x="545" y="839"/>
      <point x="440" y="625" type="curve" smooth="yes"/>
      <point x="333" y="410"/>
      <point x="76" y="-88"/>
      <point x="-55" y="-351" type="curve" smooth="yes"/>
      <point x="-71" y="-382"/>
      <point x="-66" y="-407"/>
      <point x="-46" y="-413" type="curve" smooth="yes"/>
      <point x="-21" y="-420"/>
      <point x="1" y="-405"/>
      <point x="18" y="-374" type="curve" smooth="yes"/>
      <point x="128" y="-150"/>
      <point x="380" y="377"/>
    </contour>
  </outline>
</glyph>
<glyph name="mu.math" format="2">
  <advance width="1083"/>
  <unicode hex="00B5"/>
  <outline>
    <contour>
      <point x="149" y="191" type="line"/>
      <point x="62" y="-118"/>
      <point x="-6" y="-278"/>
      <point x="-45" y="-416" type="curve" smooth="yes"/>
      <point x="-57" y="-456"/>
      <point x="-46" y="-478"/>
      <point x="-21" y="-478" type="curve" smooth="yes"/>
      <point x="3" y="-478"/>
      <point x="27" y="-456"/>
      <point x="39" y="-416" type="curve" smooth="yes"/>
      <point x="78" y="-278"/>
      <point x="110" y="-118"/>
      <point x="197" y="191" type="curve"/>
    </contour>
    <contour>
      <point x="328" y="707" type="curve" smooth="yes"/>
      <point x="176" y="277" type="line" smooth="yes"/>
      <point x="107" y="81"/>
      <point x="107" y="-15"/>
      <point x="245" y="-15" type="curve" smooth="yes"/>
      <point x="409" y="-15"/>
      <point x="682" y="132"/>
      <point x="848" y="581" type="curve"/>
      <point x="816" y="585" type="line"/>
      <point x="672" y="204"/>
      <point x="643" y="124"/>
      <point x="643" y="62" type="curve" smooth="yes"/>
      <point x="643" y="13"/>
      <point x="665" y="-15"/>
      <point x="727" y="-15" type="curve" smooth="yes"/>
      <point x="786" y="-15"/>
      <point x="861" y="21"/>
      <point x="894" y="72" type="curve" smooth="yes"/>
      <point x="905" y="89"/>
      <point x="903" y="108"/>
      <point x="891" y="114" type="curve" smooth="yes"/>
      <point x="875" y="122"/>
      <point x="862" y="107"/>
      <point x="842" y="92" type="curve" smooth="yes"/>
      <point x="807" y="65"/>
      <point x="781" y="55"/>
      <point x="760" y="55" type="curve" smooth="yes"/>
      <point x="711" y="55"/>
      <point x="705" y="91"/>
      <point x="746" y="208" type="curve" smooth="yes"/>
      <point x="938" y="759" type="line" smooth="yes"/>
      <point x="979" y="877"/>
      <point x="971" y="914"/>
      <point x="928" y="914" type="curve" smooth="yes"/>
      <point x="886" y="914"/>
      <point x="848" y="892"/>
      <point x="848" y="857" type="curve" smooth="yes"/>
      <point x="848" y="825"/>
      <point x="862" y="793"/>
      <point x="862" y="775" type="curve" smooth="yes"/>
      <point x="862" y="753"/>
      <point x="856" y="729"/>
      <point x="816" y="601" type="curve" smooth="yes"/>
      <point x="709" y="266"/>
      <point x="443" y="53"/>
      <point x="294" y="53" type="curve" smooth="yes"/>
      <point x="206" y="53"/>
      <point x="183" y="104"/>
      <point x="243" y="273" type="curve" smooth="yes"/>
      <point x="419" y="759" type="line" smooth="yes"/>
      <point x="462" y="876"/>
      <point x="452" y="914"/>
      <point x="409" y="914" type="curve" smooth="yes"/>
      <point x="367" y="914"/>
      <point x="329" y="892"/>
      <point x="329" y="857" type="curve" smooth="yes"/>
      <point x="329" y="825"/>
      <point x="343" y="793"/>
      <point x="343" y="775" type="curve" smooth="yes"/>
      <point x="343" y="745"/>
      <point x="334" y="723"/>
    </contour>
  </outline>
</glyph>
<glyph name="ae" format="2">
  <advance width="1451"/>
  <unicode hex="00E6"/>
  <outline>
    <contour>
      <point x="736" y="415" type="curve"/>
      <point x="746" y="374" type="line"/>
      <point x="746" y="374"/>
      <point x="1162" y="561"/>
      <point x="1378" y="652" type="curve" smooth="yes"/>
      <point x="1396" y="660"/>
      <point x="1408" y="670"/>
      <point x="1408" y="688" type="curve" smooth="yes"/>
      <point x="1408" y="710"/>
      <point x="1394" y="718"/>
      <point x="1376" y="712" type="curve" smooth="yes"/>
      <point x="1362" y="708"/>
      <point x="1352" y="714"/>
      <point x="1352" y="724" type="curve" smooth="yes"/>
      <point x="1352" y="831"/>
      <point x="1287" y="915"/>
      <point x="1166" y="915" type="curve" smooth="yes"/>
      <point x="1045" y="915"/>
      <point x="925" y="833"/>
      <point x="839" y="683" type="curve"/>
      <point x="850" y="682" type="line"/>
      <point x="908" y="816"/>
      <point x="879" y="914"/>
      <point x="739" y="914" type="curve" smooth="yes"/>
      <point x="418" y="914"/>
      <point x="74" y="559"/>
      <point x="74" y="187" type="curve" smooth="yes"/>
      <point x="74" y="39"/>
      <point x="143" y="-15"/>
      <point x="243" y="-15" type="curve" smooth="yes"/>
      <point x="392" y="-15"/>
      <point x="557" y="114"/>
      <point x="709" y="394" type="curve"/>
      <point x="700" y="398" type="line"/>
      <point x="653" y="112"/>
      <point x="755" y="-15"/>
      <point x="930" y="-15" type="curve" smooth="yes"/>
      <point x="1172" y="-15"/>
      <point x="1332" y="150"/>
      <point x="1332" y="272" type="curve" smooth="yes"/>
      <point x="1332" y="292"/>
      <point x="1326" y="302"/>
      <point x="1314" y="302" type="curve" smooth="yes"/>
      <point x="1304" y="302"/>
      <point x="1298" y="296"/>
      <point x="1292" y="280" type="curve" smooth="yes"/>
      <point x="1234" y="126"/>
      <point x="1104" y="45"/>
      <point x="970" y="45" type="curve" smooth="yes"/>
      <point x="846" y="45"/>
      <point x="762" y="131"/>
      <point x="762" y="320" type="curve" smooth="yes"/>
      <point x="762" y="580"/>
      <point x="982" y="863"/>
      <point x="1134" y="863" type="curve" smooth="yes"/>
      <point x="1218" y="863"/>
      <point x="1272" y="803"/>
      <point x="1272" y="710" type="curve" smooth="yes"/>
      <point x="1272.0" y="687.0"/>
      <point x="1269" y="661"/>
      <point x="1266" y="643" type="curve"/>
      <point x="1275" y="656" type="line"/>
      <point x="1083" y="572"/>
      <point x="736" y="415"/>
    </contour>
    <contour>
      <point x="148" y="214" type="curve" smooth="yes"/>
      <point x="148" y="532"/>
      <point x="455" y="856"/>
      <point x="710" y="856" type="curve" smooth="yes"/>
      <point x="772" y="856"/>
      <point x="808" y="836"/>
      <point x="808" y="786" type="curve" smooth="yes"/>
      <point x="808" y="554"/>
      <point x="485" y="44"/>
      <point x="274" y="44" type="curve" smooth="yes"/>
      <point x="191" y="44"/>
      <point x="148" y="83"/>
    </contour>
  </outline>
</glyph>
<glyph name="lslash" format="2">
  <advance width="569"/>
  <unicode hex="0142"/>
  <outline>
    <contour>
      <point x="63" y="541" type="curve" smooth="yes"/>
      <point x="70" y="525"/>
      <point x="85" y="523"/>
      <point x="104" y="534" type="curve" smooth="yes"/>
      <point x="286" y="640" type="line"/>
      <point x="307" y="716" type="line"/>
      <point x="82" y="584" type="line" smooth="yes"/>
      <point x="65" y="574"/>
      <point x="56" y="557"/>
    </contour>
    <contour>
      <point x="336" y="669" type="line"/>
      <point x="636" y="845" type="line" smooth="yes"/>
      <point x="653" y="855"/>
      <point x="663" y="872"/>
      <point x="656" y="887" type="curve" smooth="yes"/>
      <point x="648" y="906"/>
      <point x="633" y="907"/>
      <point x="617" y="897" type="curve" smooth="yes"/>
      <point x="356" y="745" type="line"/>
    </contour>
    <component base="l.alt" xOffset="10"/>
  </outline>
</glyph>
<glyph name="Uogonek" format="2">
  <advance width="1386"/>
  <unicode hex="0172"/>
  <outline>
    <contour>
      <point x="741" y="43" type="line"/>
      <point x="557" y="-36"/>
      <point x="423.0" y="-164.0"/>
      <point x="423" y="-289" type="curve" smooth="yes"/>
      <point x="423.0" y="-368.0"/>
      <point x="476" y="-419.0"/>
      <point x="565" y="-419" type="curve" smooth="yes"/>
      <point x="652" y="-419"/>
      <point x="725" y="-360"/>
      <point x="741" y="-309" type="curve" smooth="yes"/>
      <point x="746" y="-293"/>
      <point x="738" y="-287"/>
      <point x="730" y="-287" type="curve" smooth="yes"/>
      <point x="720" y="-287"/>
      <point x="714" y="-291"/>
      <point x="704" y="-304" type="curve" smooth="yes"/>
      <point x="672" y="-348"/>
      <point x="621" y="-366.0"/>
      <point x="577" y="-366" type="curve" smooth="yes"/>
      <point x="530" y="-366.0"/>
      <point x="495.0" y="-337.0"/>
      <point x="495" y="-280" type="curve" smooth="yes"/>
      <point x="495" y="-173"/>
      <point x="606" y="-68"/>
      <point x="752" y="4" type="curve"/>
    </contour>
    <component base="U"/>
  </outline>
</glyph>
<glyph name="Ohorn" format="2">
  <advance width="1522"/>
  <unicode hex="01A0"/>
  <anchor x="1033" y="1546.0" name="center"/>
  <outline>
    <contour>
      <point x="1710" y="1605.0" type="curve" smooth="yes"/>
      <point x="1720" y="1643.0"/>
      <point x="1704" y="1665.0"/>
      <point x="1674" y="1665.0" type="curve" smooth="yes"/>
      <point x="1641" y="1665.0"/>
      <point x="1614" y="1644.0"/>
      <point x="1605" y="1609.0" type="curve" smooth="yes"/>
      <point x="1594" y="1569.0" type="line" smooth="yes"/>
      <point x="1556" y="1426.0"/>
      <point x="1441" y="1362.0"/>
      <point x="1130" y="1406.0" type="curve" smooth="yes"/>
      <point x="1121" y="1407.0"/>
      <point x="1113" y="1402.0"/>
      <point x="1110" y="1393.0" type="curve" smooth="yes"/>
      <point x="1105.09502053731" y="1373.3800821492396"/>
      <point x="1111.663772117566" y="1370.0672455764868"/>
      <point x="1122" y="1368.0" type="curve" smooth="yes"/>
      <point x="1446.741051480595" y="1292.8284603054178"/>
      <point x="1658.9859011560502" y="1416.5601654947975"/>
    </contour>
    <component base="O"/>
  </outline>
</glyph>
<glyph name="oogonek" format="2">
  <advance width="957"/>
  <unicode hex="01EB"/>
  <outline>
    <contour>
      <point x="873.0" y="779"/>
      <point x="762" y="915"/>
      <point x="581.0" y="915" type="curve" smooth="yes"/>
      <point x="307.0" y="915"/>
      <point x="83" y="622"/>
      <point x="83.0" y="320" type="curve" smooth="yes"/>
      <point x="83" y="118"/>
      <point x="197.39310344827587" y="-17.0"/>
      <point x="374.0" y="-17" type="curve" smooth="yes"/>
      <point x="391.76" y="-17.0"/>
      <point x="408.53033007132296" y="-15.960225244650779"/>
      <point x="448.0" y="-13" type="curve"/>
      <point x="443.0" y="2" type="line"/>
      <point x="306.0" y="-94"/>
      <point x="242.0" y="-194"/>
      <point x="242.0" y="-285" type="curve" smooth="yes"/>
      <point x="242.0" y="-366"/>
      <point x="295.0" y="-419"/>
      <point x="383.0" y="-419" type="curve" smooth="yes"/>
      <point x="471.0" y="-419"/>
      <point x="544.0" y="-360"/>
      <point x="560.0" y="-309" type="curve" smooth="yes"/>
      <point x="565.0" y="-293"/>
      <point x="557.0" y="-287"/>
      <point x="549.0" y="-287" type="curve" smooth="yes"/>
      <point x="539.0" y="-287"/>
      <point x="533.0" y="-291"/>
      <point x="523.0" y="-304" type="curve" smooth="yes"/>
      <point x="491.0" y="-348"/>
      <point x="440.0" y="-366"/>
      <point x="396.0" y="-366" type="curve" smooth="yes"/>
      <point x="349.0" y="-366"/>
      <point x="314.0" y="-335"/>
      <point x="314.0" y="-273" type="curve" smooth="yes"/>
      <point x="314.0" y="-174.0"/>
      <point x="407.23358986404287" y="-57.868805692797835"/>
      <point x="553.0" y="24" type="curve" smooth="yes"/>
      <point x="737.1587048395212" y="127.08884020907979"/>
      <point x="873.0" y="328.09386281588445"/>
      <point x="873.0" y="580" type="curve" smooth="yes"/>
    </contour>
    <contour>
      <point x="400.0" y="41" type="curve" smooth="yes"/>
      <point x="259" y="41"/>
      <point x="158.0" y="122.92592592592592"/>
      <point x="158.0" y="321" type="curve" smooth="yes"/>
      <point x="158.0" y="593.8905109489051"/>
      <point x="338.30339805825247" y="857.0"/>
      <point x="573.0" y="857" type="curve" smooth="yes"/>
      <point x="695.3684210526316" y="857.0"/>
      <point x="798.0" y="768.5734265734266"/>
      <point x="798.0" y="576" type="curve" smooth="yes"/>
      <point x="798.0" y="272.296992481203"/>
      <point x="590.0" y="41.0"/>
    </contour>
  </outline>
</glyph>
<glyph name="breve" format="2">
  <advance width="516"/>
  <unicode hex="02D8"/>
  <outline>
    <contour>
      <point x="385" y="1146" type="curve"/>
      <point x="297" y="1146"/>
      <point x="253" y="1195"/>
      <point x="250" y="1306" type="curve" smooth="yes"/>
      <point x="249" y="1318"/>
      <point x="245" y="1322"/>
      <point x="238" y="1322" type="curve" smooth="yes"/>
      <point x="231" y="1322"/>
      <point x="223" y="1316"/>
      <point x="219" y="1304" type="curve" smooth="yes"/>
      <point x="187" y="1167"/>
      <point x="244" y="1071"/>
      <point x="365" y="1071" type="curve" smooth="yes"/>
      <point x="486" y="1071"/>
      <point x="595" y="1167"/>
      <point x="635" y="1304" type="curve" smooth="yes"/>
      <point x="639" y="1316"/>
      <point x="633" y="1322"/>
      <point x="626" y="1322" type="curve" smooth="yes"/>
      <point x="619" y="1322"/>
      <point x="613" y="1318"/>
      <point x="606" y="1306" type="curve" smooth="yes"/>
      <point x="543" y="1195"/>
      <point x="473" y="1146"/>
    </contour>
  </outline>
</glyph>
<glyph name="guilsinglleft" format="2">
  <advance width="608"/>
  <unicode hex="2039"/>
  <outline>
    <contour>
      <point x="134" y="484" type="curve" smooth="yes"/>
      <point x="128" y="460"/>
      <point x="132" y="452"/>
      <point x="176" y="401" type="curve" smooth="yes"/>
      <point x="273.9631495531393" y="287.23634245441883"/>
      <point x="305.06426751296857" y="242.90299243325498"/>
      <point x="358" y="163" type="curve" smooth="yes"/>
      <point x="367.5064113662155" y="150.32478484504597"/>
      <point x="376.8272654269167" y="140.89443998311577"/>
      <point x="395" y="152" type="curve" smooth="yes"/>
      <point x="409.39960725243543" y="161.31739292804644"/>
      <point x="409.4747410680127" y="176.1255548542585"/>
      <point x="403" y="190" type="curve" smooth="yes"/>
      <point x="367.8634783371433" y="267.30034765828475"/>
      <point x="323.00576940318325" y="345.99292621001007"/>
      <point x="208" y="487" type="curve"/>
      <point x="196" y="441" type="line"/>
      <point x="384.86262192259784" y="581.1559457425594"/>
      <point x="475.64973441043105" y="654.6582835474104"/>
      <point x="551" y="731" type="curve" smooth="yes"/>
      <point x="566.965049718056" y="746.965049718056"/>
      <point x="573.7077031265744" y="764.2922968734256"/>
      <point x="562" y="776" type="curve" smooth="yes"/>
      <point x="551.9044863317206" y="785.2542208625894"/>
      <point x="531.9924931421486" y="780.393994513719"/>
      <point x="519" y="770" type="curve" smooth="yes"/>
      <point x="427.3240481850099" y="694.4428968557773"/>
      <point x="372.9389921843474" y="655.6715970590035"/>
      <point x="221" y="547" type="curve" smooth="yes"/>
      <point x="154.29265943851522" y="499.7489671022816"/>
      <point x="139.46433655776693" y="502.73486819805805"/>
    </contour>
  </outline>
</glyph>
<glyph name="acute.cap" format="2">
  <advance width="398"/>
  <anchor x="97" y="991" name="center"/>
  <outline>
    <contour>
      <point x="269.57768478738336" y="1244.0" type="curve" smooth="yes"/>
      <point x="68.45748887479681" y="1085.0" type="line" smooth="yes"/>
      <point x="59.38854819994964" y="1077.0"/>
      <point x="49.543754772034845" y="1066.0"/>
      <point x="54.47481409718773" y="1058.0" type="curve" smooth="yes"/>
      <point x="58.664491006696494" y="1051.0"/>
      <point x="68.6644910066965" y="1051.0"/>
      <point x="76.69896134412005" y="1055.0" type="curve" smooth="yes"/>
      <point x="309.76754180425047" y="1179.0" type="line" smooth="yes"/>
      <point x="346.9398934913683" y="1199.0"/>
      <point x="379.3363924254184" y="1216.0"/>
      <point x="393.80183203431574" y="1241.0" type="curve" smooth="yes"/>
      <point x="408.7500364745012" y="1264.0"/>
      <point x="403.95685849904254" y="1288.0"/>
      <point x="382.5430343426014" y="1298.0" type="curve" smooth="yes"/>
      <point x="353.6464453548721" y="1310.0"/>
      <point x="322.1810057459749" y="1285.0"/>
    </contour>
  </outline>
</glyph>
<glyph name="acutecmb" format="2">
  <advance width="362"/>
  <anchor x="81" y="991" name="center"/>
  <outline>
    <contour>
      <point x="242.7838618641107" y="1268.0" type="curve" smooth="yes"/>
      <point x="65.19822634262687" y="1084.0" type="line" smooth="yes"/>
      <point x="56.87066808342388" y="1075.0"/>
      <point x="48.76725707115321" y="1063.0"/>
      <point x="55.95693398066197" y="1056.0" type="curve" smooth="yes"/>
      <point x="61.40522847452661" y="1050.0"/>
      <point x="71.92246364323842" y="1052.0"/>
      <point x="79.21555156501785" y="1057.0" type="curve" smooth="yes"/>
      <point x="295.81851230889265" y="1214.0" type="line" smooth="yes"/>
      <point x="330.28395191778986" y="1239.0"/>
      <point x="360.97353877361945" y="1261.0"/>
      <point x="371.69759596687265" y="1287.0" type="curve" smooth="yes"/>
      <point x="381.904417991414" y="1311.0"/>
      <point x="372.5940048472436" y="1333.0"/>
      <point x="348.88709276902307" y="1338.0" type="curve" smooth="yes"/>
      <point x="316.6974158595143" y="1345.0"/>
      <point x="289.19750591319337" y="1316.0"/>
    </contour>
  </outline>
</glyph>
<glyph name="belowbrevecmb" format="2">
  <advance width="516"/>
  <outline>
    <contour>
      <point x="277.39631882669175" y="-369.0" type="curve"/>
      <point x="189.39631882669175" y="-369.0"/>
      <point x="145.0685804601304" y="-320.0"/>
      <point x="140.77513232363424" y="-209.0" type="curve" smooth="yes"/>
      <point x="139.8785433359049" y="-197.0"/>
      <point x="135.91301367332846" y="-193.0"/>
      <point x="128.91301367332846" y="-193.0" type="curve" smooth="yes"/>
      <point x="121.91301367332846" y="-193.0"/>
      <point x="113.36130816719313" y="-199.0"/>
      <point x="110.25789715492245" y="-211.0" type="curve" smooth="yes"/>
      <point x="78.82728809816547" y="-348.0"/>
      <point x="137.0" y="-444.0"/>
      <point x="258.0" y="-444.0" type="curve" smooth="yes"/>
      <point x="379.0" y="-444.0"/>
      <point x="486.82728809816547" y="-348.0"/>
      <point x="526.2578971549225" y="-211.0" type="curve" smooth="yes"/>
      <point x="529.3613081671931" y="-199.0"/>
      <point x="523.9130136733285" y="-193.0"/>
      <point x="516.9130136733285" y="-193.0" type="curve" smooth="yes"/>
      <point x="509.91301367332846" y="-193.0"/>
      <point x="503.87854333590485" y="-197.0"/>
      <point x="496.77513232363424" y="-209.0" type="curve" smooth="yes"/>
      <point x="435.0685804601304" y="-320.0"/>
      <point x="365.39631882669175" y="-369.0"/>
    </contour>
  </outline>
</glyph>
<glyph name="brevegrave" format="2">
  <advance width="516"/>
  <anchor x="260" y="954" name="center"/>
  <outline>
    <contour>
      <point x="340.5502646472685" y="1516.0" type="line" smooth="yes"/>
      <point x="329.25699661813064" y="1569.0"/>
      <point x="323.5327593175191" y="1601.0"/>
      <point x="288.2741417331632" y="1600.0" type="curve" smooth="yes"/>
      <point x="262.2741417331632" y="1600.0"/>
      <point x="239.10179004604544" y="1580.0"/>
      <point x="231.89496802150404" y="1556.0" type="curve" smooth="yes"/>
      <point x="225.1709108282509" y="1530.0"/>
      <point x="239.44685363499775" y="1504.0"/>
      <point x="254.68832610432105" y="1474.0" type="curve" smooth="yes"/>
      <point x="353.1026905828372" y="1290.0" type="line" smooth="yes"/>
      <point x="356.292367492346" y="1283.0"/>
      <point x="365.2578971549224" y="1279.0"/>
      <point x="374.80960266105785" y="1285.0" type="curve" smooth="yes"/>
      <point x="386.1026905828372" y="1290.0"/>
      <point x="386.20610159510784" y="1302.0"/>
      <point x="384.7922774386668" y="1312.0" type="curve" smooth="yes"/>
    </contour>
    <contour>
      <point x="277.39631882669175" y="1121.0" type="curve" smooth="yes"/>
      <point x="189.39631882669175" y="1121.0"/>
      <point x="145.06858046013042" y="1170.0"/>
      <point x="140.77513232363424" y="1281.0" type="curve" smooth="yes"/>
      <point x="139.8785433359049" y="1293.0"/>
      <point x="135.91301367332846" y="1297.0"/>
      <point x="128.91301367332846" y="1297.0" type="curve" smooth="yes"/>
      <point x="121.91301367332846" y="1297.0"/>
      <point x="113.3613081671931" y="1291.0"/>
      <point x="110.25789715492243" y="1279.0" type="curve" smooth="yes"/>
      <point x="78.82728809816547" y="1142.0"/>
      <point x="137.0" y="1046.0"/>
      <point x="258.0" y="1046.0" type="curve" smooth="yes"/>
      <point x="379.0" y="1046.0"/>
      <point x="486.82728809816547" y="1142.0"/>
      <point x="526.2578971549224" y="1279.0" type="curve" smooth="yes"/>
      <point x="529.3613081671931" y="1291.0"/>
      <point x="523.9130136733285" y="1297.0"/>
      <point x="516.9130136733285" y="1297.0" type="curve" smooth="yes"/>
      <point x="509.91301367332846" y="1297.0"/>
      <point x="503.87854333590485" y="1293.0"/>
      <point x="496.77513232363424" y="1281.0" type="curve" smooth="yes"/>
      <point x="435.0685804601304" y="1170.0"/>
      <point x="365.39631882669175" y="1121.0"/>
    </contour>
  </outline>
</glyph>
<glyph name="brevehook" format="2">
  <advance width="516"/>
  <anchor x="260" y="954" name="center"/>
  <outline>
    <contour>
      <point x="280.24057193253157" y="1306.0" type="curve" smooth="yes"/>
      <point x="281.0853653604463" y="1317.0"/>
      <point x="292.18877637271703" y="1329.0"/>
      <point x="305.7060115414288" y="1331.0" type="curve" smooth="yes"/>
      <point x="394.29218738498764" y="1341.0"/>
      <point x="443.9644490184262" y="1390.0"/>
      <point x="460.25735683284734" y="1453.0" type="curve" smooth="yes"/>
      <point x="475.257176725489" y="1511.0"/>
      <point x="441.23985150309807" y="1538.0"/>
      <point x="391.23985150309807" y="1538.0" type="curve" smooth="yes"/>
      <point x="328.23985150309807" y="1538.0"/>
      <point x="294.70547121935374" y="1505.0"/>
      <point x="282.8090623389827" y="1459.0" type="curve" smooth="yes"/>
      <point x="276.60224031444136" y="1435.0" type="line" smooth="yes"/>
      <point x="268.84371278376466" y="1405.0"/>
      <point x="246.70583143407043" y="1389.0"/>
      <point x="221.70583143407038" y="1389.0" type="curve" smooth="yes"/>
      <point x="195.70583143407038" y="1389.0"/>
      <point x="185.87818312118821" y="1409.0"/>
      <point x="192.60224031444136" y="1435.0" type="curve" smooth="yes"/>
      <point x="213.29164706291255" y="1515.0"/>
      <point x="309.65349555218086" y="1586.0"/>
      <point x="403.65349555218086" y="1586.0" type="curve" smooth="yes"/>
      <point x="493.65349555218086" y="1586.0"/>
      <point x="550.7226163343862" y="1536.0"/>
      <point x="529.2573568328473" y="1453.0" type="curve" smooth="yes"/>
      <point x="513.2230666027822" y="1391.0"/>
      <point x="451.27504226995507" y="1310.0"/>
      <point x="329.3613081671931" y="1291.0" type="curve" smooth="yes"/>
      <point x="283.55098507670186" y="1284.0"/>
      <point x="278.87854333590485" y="1293.0"/>
    </contour>
    <contour>
      <point x="277.39631882669175" y="1121.0" type="curve"/>
      <point x="189.39631882669175" y="1121.0"/>
      <point x="145.06858046013042" y="1170.0"/>
      <point x="140.77513232363424" y="1281.0" type="curve" smooth="yes"/>
      <point x="139.8785433359049" y="1293.0"/>
      <point x="135.91301367332846" y="1297.0"/>
      <point x="128.91301367332846" y="1297.0" type="curve" smooth="yes"/>
      <point x="121.91301367332846" y="1297.0"/>
      <point x="113.3613081671931" y="1291.0"/>
      <point x="110.25789715492243" y="1279.0" type="curve" smooth="yes"/>
      <point x="78.82728809816547" y="1142.0"/>
      <point x="137.0" y="1046.0"/>
      <point x="258.0" y="1046.0" type="curve" smooth="yes"/>
      <point x="379.0" y="1046.0"/>
      <point x="486.82728809816547" y="1142.0"/>
      <point x="526.2578971549224" y="1279.0" type="curve" smooth="yes"/>
      <point x="529.3613081671931" y="1291.0"/>
      <point x="523.9130136733285" y="1297.0"/>
      <point x="516.9130136733285" y="1297.0" type="curve" smooth="yes"/>
      <point x="509.91301367332846" y="1297.0"/>
      <point x="503.87854333590485" y="1293.0"/>
      <point x="496.77513232363424" y="1281.0" type="curve" smooth="yes"/>
      <point x="435.0685804601304" y="1170.0"/>
      <point x="365.39631882669175" y="1121.0"/>
    </contour>
  </outline>
</glyph>
<glyph name="brevetilde" format="2">
  <advance width="533"/>
  <guideline x="308" y="1569" angle="0" identifier="iDOIEicGCX"/>
  <guideline x="165" y="1377" angle="0" identifier="O5bWgBDFu1"/>
  <anchor x="260" y="954" name="center"/>
  <outline>
    <contour>
      <point x="289.39631882669175" y="1121.0" type="curve" smooth="yes"/>
      <point x="201.39631882669175" y="1121.0"/>
      <point x="157.06858046013042" y="1170.0"/>
      <point x="152.77513232363424" y="1281.0" type="curve" smooth="yes"/>
      <point x="151.8785433359049" y="1293.0"/>
      <point x="147.91301367332846" y="1297.0"/>
      <point x="140.91301367332846" y="1297.0" type="curve" smooth="yes"/>
      <point x="133.91301367332846" y="1297.0"/>
      <point x="125.3613081671931" y="1291.0"/>
      <point x="122.25789715492243" y="1279.0" type="curve" smooth="yes"/>
      <point x="90.82728809816547" y="1142.0"/>
      <point x="149.0" y="1046.0"/>
      <point x="270.0" y="1046.0" type="curve" smooth="yes"/>
      <point x="391.0" y="1046.0"/>
      <point x="498.82728809816547" y="1142.0"/>
      <point x="538.2578971549224" y="1279.0" type="curve" smooth="yes"/>
      <point x="541.3613081671931" y="1291.0"/>
      <point x="535.9130136733285" y="1297.0"/>
      <point x="528.9130136733285" y="1297.0" type="curve" smooth="yes"/>
      <point x="521.9130136733285" y="1297.0"/>
      <point x="515.8785433359049" y="1293.0"/>
      <point x="508.77513232363424" y="1281.0" type="curve" smooth="yes"/>
      <point x="447.0685804601304" y="1170.0"/>
      <point x="377.39631882669175" y="1121.0"/>
    </contour>
    <contour>
      <point x="455.1369808129025" y="1352.0" type="curve" smooth="yes"/>
      <point x="522.1369808129025" y="1352.0"/>
      <point x="575.3264776150529" y="1403.0"/>
      <point x="604.0330294785567" y="1514.0" type="curve" smooth="yes"/>
      <point x="609.9812339187422" y="1537.0"/>
      <point x="602.7915570092334" y="1544.0"/>
      <point x="589.7915570092334" y="1544.0" type="curve" smooth="yes"/>
      <point x="572.7915570092334" y="1544.0"/>
      <point x="561.9467635813186" y="1533.0"/>
      <point x="557.0330294785567" y="1514.0" type="curve" smooth="yes"/>
      <point x="540.7401216641356" y="1451.0"/>
      <point x="516.4643589647471" y="1419.0"/>
      <point x="480.46435896474713" y="1419.0" type="curve" smooth="yes"/>
      <point x="409.46435896474713" y="1419.0"/>
      <point x="388.79155700923343" y="1544.0"/>
      <point x="285.79155700923343" y="1544.0" type="curve" smooth="yes"/>
      <point x="218.79155700923337" y="1544.0"/>
      <point x="165.0848250383712" y="1491.0"/>
      <point x="136.63689075922326" y="1381.0" type="curve" smooth="yes"/>
      <point x="131.20592148774955" y="1360.0"/>
      <point x="139.13698081290244" y="1352.0"/>
      <point x="152.13698081290244" y="1352.0" type="curve" smooth="yes"/>
      <point x="167.13698081290244" y="1352.0"/>
      <point x="179.2403918251731" y="1364.0"/>
      <point x="183.63689075922326" y="1381.0" type="curve" smooth="yes"/>
      <point x="200.70565132671203" y="1447.0"/>
      <point x="225.46417885738873" y="1477.0"/>
      <point x="261.4641788573888" y="1477.0" type="curve" smooth="yes"/>
      <point x="328.4641788573888" y="1477.0"/>
      <point x="353.1369808129025" y="1352.0"/>
    </contour>
  </outline>
</glyph>
<glyph name="cedillacmb" format="2">
  <advance width="434"/>
  <outline>
    <contour>
      <point x="334" y="17.0" type="line"/>
      <point x="223.3266577224112" y="-134.0" type="line" smooth="yes"/>
      <point x="205" y="-159"/>
      <point x="205.3957785046167" y="-184.0"/>
      <point x="235.3957785046167" y="-184.0" type="curve" smooth="yes"/>
      <point x="275.3957785046167" y="-184.0" type="line" smooth="yes"/>
      <point x="341.3957785046167" y="-184.0"/>
      <point x="365.5683102990929" y="-222.0"/>
      <point x="350.3098728220954" y="-281.0" type="curve" smooth="yes"/>
      <point x="333.75834742331836" y="-345.0"/>
      <point x="289.1894968021504" y="-382.0"/>
      <point x="226.18949680215042" y="-382.0" type="curve" smooth="yes"/>
      <point x="174.18949680215042" y="-382.0"/>
      <point x="128.10323090491232" y="-363.0"/>
      <point x="134.0685804601304" y="-309.0" type="curve" smooth="yes"/>
      <point x="136.20646180982465" y="-293.0"/>
      <point x="128.79263765338357" y="-283.0"/>
      <point x="112.79263765338355" y="-283.0" type="curve" smooth="yes"/>
      <point x="99.79263765338355" y="-283.0"/>
      <point x="85.17199147240107" y="-297.0"/>
      <point x="80.51687495399506" y="-315.0" type="curve" smooth="yes"/>
      <point x="62.67226163343862" y="-384.0"/>
      <point x="126.0" y="-433.0"/>
      <point x="213.0" y="-433.0" type="curve" smooth="yes"/>
      <point x="314.0" y="-433.0"/>
      <point x="400.03429023006515" y="-371.0"/>
      <point x="423.8271079908071" y="-279.0" type="curve" smooth="yes"/>
      <point x="447.3613081671931" y="-188.0"/>
      <point x="392.32665772241126" y="-134.0"/>
      <point x="290.3266577224112" y="-134.0" type="curve" smooth="yes"/>
      <point x="274.3266577224112" y="-134.0"/>
      <point x="258.3266577224112" y="-134.0"/>
      <point x="242.3266577224112" y="-134.0" type="curve"/>
      <point x="269.22324671014053" y="-146.0" type="line"/>
      <point x="389" y="17.0" type="line"/>
    </contour>
  </outline>
</glyph>
<glyph name="dieresisbelowcmb" format="2">
  <advance width="580"/>
  <outline>
    <contour>
      <point x="121.0" y="-360.0" type="curve" smooth="yes"/>
      <point x="162.0" y="-360.0"/>
      <point x="200.31023303681206" y="-324.0"/>
      <point x="211.43078916411534" y="-281.0" type="curve" smooth="yes"/>
      <point x="222.5513452914186" y="-238.0"/>
      <point x="202.6029607438748" y="-203.0"/>
      <point x="161.6029607438748" y="-203.0" type="curve" smooth="yes"/>
      <point x="119.60296074387477" y="-203.0"/>
      <point x="81.55134529141861" y="-238.0"/>
      <point x="70.43078916411534" y="-281.0" type="curve" smooth="yes"/>
      <point x="59.31023303681205" y="-324.0"/>
      <point x="79.0" y="-360.0"/>
    </contour>
    <contour>
      <point x="460.0" y="-360.0" type="curve" smooth="yes"/>
      <point x="501.0" y="-360.0"/>
      <point x="539.3102330368121" y="-324.0"/>
      <point x="550.4307891641154" y="-281.0" type="curve" smooth="yes"/>
      <point x="561.5513452914186" y="-238.0"/>
      <point x="541.6029607438747" y="-203.0"/>
      <point x="500.6029607438748" y="-203.0" type="curve" smooth="yes"/>
      <point x="458.6029607438748" y="-203.0"/>
      <point x="420.5513452914186" y="-238.0"/>
      <point x="409.43078916411537" y="-281.0" type="curve" smooth="yes"/>
      <point x="398.31023303681206" y="-324.0"/>
      <point x="418.0" y="-360.0"/>
    </contour>
  </outline>
</glyph>
<glyph name="dotaccent.cap" format="2">
  <advance width="241"/>
  <anchor x="132" y="958" name="center"/>
  <outline>
    <contour>
      <point x="121.0" y="1090.0" type="curve" smooth="yes"/>
      <point x="162.0" y="1090.0"/>
      <point x="200.31023303681206" y="1126.0"/>
      <point x="211.4307891641153" y="1169.0" type="curve" smooth="yes"/>
      <point x="222.5513452914186" y="1212.0"/>
      <point x="202.6029607438748" y="1247.0"/>
      <point x="161.6029607438748" y="1247.0" type="curve" smooth="yes"/>
      <point x="119.6029607438748" y="1247.0"/>
      <point x="81.55134529141861" y="1212.0"/>
      <point x="70.43078916411531" y="1169.0" type="curve" smooth="yes"/>
      <point x="59.310233036812065" y="1126.0"/>
      <point x="79.0" y="1090.0"/>
    </contour>
  </outline>
</glyph>
<glyph name="gravecmb" format="2">
  <advance width="362"/>
  <anchor x="297" y="991" name="center"/>
  <outline>
    <contour>
      <point x="230.7838618641107" y="1268.0" type="line" smooth="yes"/>
      <point x="209.19750591319342" y="1316.0"/>
      <point x="196.69741585951425" y="1345.0"/>
      <point x="160.887092769023" y="1338.0" type="curve" smooth="yes"/>
      <point x="134.59400484724358" y="1333.0"/>
      <point x="113.904417991414" y="1311.0"/>
      <point x="111.6975959668726" y="1287.0" type="curve" smooth="yes"/>
      <point x="108.97353877361945" y="1261.0"/>
      <point x="128.28395191778986" y="1239.0"/>
      <point x="149.81851230889265" y="1214.0" type="curve" smooth="yes"/>
      <point x="285.2155515650178" y="1057.0" type="line" smooth="yes"/>
      <point x="289.9224636432384" y="1052.0"/>
      <point x="299.40522847452655" y="1050.0"/>
      <point x="307.95693398066203" y="1056.0" type="curve" smooth="yes"/>
      <point x="318.76725707115327" y="1063.0"/>
      <point x="316.8706680834239" y="1075.0"/>
      <point x="313.19822634262687" y="1084.0" type="curve" smooth="yes"/>
    </contour>
  </outline>
</glyph>
<glyph name="gravedouble.cap" format="2">
  <advance width="528"/>
  <anchor x="357" y="973" name="center"/>
  <outline>
    <contour>
      <point x="221.52152118692266" y="1263.0" type="line" smooth="yes"/>
      <point x="210.19378282036126" y="1312.0"/>
      <point x="202.2109279353939" y="1343.0"/>
      <point x="162.65922242925853" y="1337.0" type="curve" smooth="yes"/>
      <point x="137.62475209183498" y="1333.0"/>
      <point x="114.45240040471714" y="1313.0"/>
      <point x="111.69387287404044" y="1283.0" type="curve" smooth="yes"/>
      <point x="110.74566843385497" y="1260.0"/>
      <point x="125.05608157802538" y="1238.0"/>
      <point x="137.62511230655167" y="1217.0" type="curve" smooth="yes"/>
      <point x="226.7980043157446" y="1063.0" type="line" smooth="yes"/>
      <point x="233.2118284721857" y="1053.0"/>
      <point x="243.1773581347622" y="1049.0"/>
      <point x="253.72906364089744" y="1055.0" type="curve" smooth="yes"/>
      <point x="263.5393867313887" y="1062.0"/>
      <point x="263.9014153280153" y="1075.0"/>
      <point x="262.2634439246419" y="1088.0" type="curve" smooth="yes"/>
    </contour>
    <contour>
      <point x="442.5215211869226" y="1263.0" type="line" smooth="yes"/>
      <point x="431.19378282036126" y="1312.0"/>
      <point x="423.21092793539395" y="1343.0"/>
      <point x="383.6592224292585" y="1337.0" type="curve" smooth="yes"/>
      <point x="357.624752091835" y="1333.0"/>
      <point x="335.45240040471714" y="1313.0"/>
      <point x="332.69387287404044" y="1283.0" type="curve" smooth="yes"/>
      <point x="330.745668433855" y="1260.0"/>
      <point x="345.0560815780254" y="1238.0"/>
      <point x="357.62511230655167" y="1217.0" type="curve" smooth="yes"/>
      <point x="447.79800431574466" y="1063.0" type="line" smooth="yes"/>
      <point x="453.2118284721857" y="1053.0"/>
      <point x="463.1773581347622" y="1049.0"/>
      <point x="473.72906364089744" y="1055.0" type="curve" smooth="yes"/>
      <point x="484.5393867313887" y="1062.0"/>
      <point x="484.9014153280153" y="1075.0"/>
      <point x="482.2634439246419" y="1088.0" type="curve" smooth="yes"/>
    </contour>
  </outline>
</glyph>
<glyph name="hookcmb" format="2">
  <advance width="441"/>
  <anchor x="253" y="957" name="center"/>
  <outline>
    <contour>
      <point x="179.73642966715778" y="1081.0" type="curve" smooth="yes"/>
      <point x="181.3226055107167" y="1091.0"/>
      <point x="191.1673989386315" y="1102.0"/>
      <point x="204.94325169169917" y="1105.0" type="curve" smooth="yes"/>
      <point x="298.115603378817" y="1125.0"/>
      <point x="348.7878650122557" y="1174.0"/>
      <point x="366.63247833281207" y="1243.0" type="curve" smooth="yes"/>
      <point x="383.9598564846567" y="1310.0"/>
      <point x="350.49423676840115" y="1343.0"/>
      <point x="299.49423676840115" y="1343.0" type="curve" smooth="yes"/>
      <point x="235.4942367684011" y="1343.0"/>
      <point x="199.18400373158903" y="1307.0"/>
      <point x="186.7703596825063" y="1259.0" type="curve" smooth="yes"/>
      <point x="180.04630248925315" y="1233.0" type="line" smooth="yes"/>
      <point x="172.28777495857645" y="1203.0"/>
      <point x="149.63265844017042" y="1185.0"/>
      <point x="122.63265844017042" y="1185.0" type="curve" smooth="yes"/>
      <point x="96.63265844017042" y="1185.0"/>
      <point x="87.322245296" y="1207.0"/>
      <point x="94.04630248925315" y="1233.0" type="curve" smooth="yes"/>
      <point x="115.77017957514795" y="1317.0"/>
      <point x="214.6492632331279" y="1390.0"/>
      <point x="312.64926323312784" y="1390.0" type="curve" smooth="yes"/>
      <point x="406.64926323312784" y="1390.0"/>
      <point x="461.4252960935539" y="1335.0"/>
      <point x="437.63247833281207" y="1243.0" type="curve" smooth="yes"/>
      <point x="420.30510018096743" y="1176.0"/>
      <point x="361.87431101685206" y="1097.0"/>
      <point x="231.11578348617536" y="1067.0" type="curve" smooth="yes"/>
      <point x="183.27099005826057" y="1056.0"/>
      <point x="178.37440107053123" y="1068.0"/>
    </contour>
  </outline>
</glyph>
<glyph name="horncmb" format="2">
  <advance width="509"/>
  <outline>
    <contour>
      <point x="523.2327928329439" y="1126.0" type="curve" smooth="yes"/>
      <point x="533.0602610384677" y="1164.0"/>
      <point x="516.7498478942973" y="1186.0"/>
      <point x="486.7498478942973" y="1186.0" type="curve" smooth="yes"/>
      <point x="453.7498478942973" y="1186.0"/>
      <point x="427.3188786228236" y="1165.0"/>
      <point x="418.2672631703675" y="1130.0" type="curve" smooth="yes"/>
      <point x="402.750208109014" y="1070.0" type="line" smooth="yes"/>
      <point x="373.7850386611543" y="958.0"/>
      <point x="235.681807756242" y="888.0"/>
      <point x="84.76789354612174" y="927.0" type="curve" smooth="yes"/>
      <point x="73.54374629918937" y="930.0"/>
      <point x="61.21618803998638" y="921.0"/>
      <point x="58.11277702771571" y="909.0" type="curve" smooth="yes"/>
      <point x="55.52660118415679" y="899.0"/>
      <point x="60.71627809366555" y="892.0"/>
      <point x="74.94042534059793" y="889.0" type="curve" smooth="yes"/>
      <point x="285.26816370715926" y="840.0"/>
      <point x="479.0091859080867" y="955.0"/>
    </contour>
  </outline>
</glyph>
<glyph name="invertedbrevecmb" format="2">
  <advance width="516"/>
  <anchor x="271" y="996" name="center"/>
  <outline>
    <contour>
      <point x="303.51669484663665" y="1242.0" type="curve"/>
      <point x="391.51669484663665" y="1242.0"/>
      <point x="435.8444332131981" y="1193.0"/>
      <point x="440.1378813496943" y="1082.0" type="curve" smooth="yes"/>
      <point x="441.03447033742356" y="1070.0"/>
      <point x="444.99999999999994" y="1066.0"/>
      <point x="451.99999999999994" y="1066.0" type="curve" smooth="yes"/>
      <point x="458.99999999999994" y="1066.0"/>
      <point x="467.5517055061354" y="1072.0"/>
      <point x="470.65511651840603" y="1084.0" type="curve" smooth="yes"/>
      <point x="502.08572557516294" y="1221.0"/>
      <point x="443.9130136733285" y="1317.0"/>
      <point x="322.9130136733285" y="1317.0" type="curve" smooth="yes"/>
      <point x="201.91301367332852" y="1317.0"/>
      <point x="94.085725575163" y="1221.0"/>
      <point x="54.65511651840603" y="1084.0" type="curve" smooth="yes"/>
      <point x="51.55170550613536" y="1072.0"/>
      <point x="57.0" y="1066.0"/>
      <point x="64.0" y="1066.0" type="curve" smooth="yes"/>
      <point x="71.0" y="1066.0"/>
      <point x="77.03447033742356" y="1070.0"/>
      <point x="84.13788134969428" y="1082.0" type="curve" smooth="yes"/>
      <point x="145.8444332131981" y="1193.0"/>
      <point x="215.5166948466367" y="1242.0"/>
    </contour>
  </outline>
</glyph>
<glyph name="tilde.cap" format="2">
  <advance width="573"/>
  <anchor x="307" y="1062" name="center"/>
  <outline>
    <contour>
      <point x="406" y="1081.0" type="curve" smooth="yes"/>
      <point x="479" y="1081.0"/>
      <point x="536" y="1132.0"/>
      <point x="565" y="1243.0" type="curve" smooth="yes"/>
      <point x="571" y="1266.0"/>
      <point x="564" y="1273.0"/>
      <point x="551" y="1273.0" type="curve" smooth="yes"/>
      <point x="534" y="1273.0"/>
      <point x="523" y="1262.0"/>
      <point x="518" y="1243.0" type="curve" smooth="yes"/>
      <point x="502" y="1180.0"/>
      <point x="473" y="1148.0"/>
      <point x="431" y="1148.0" type="curve" smooth="yes"/>
      <point x="355" y="1148.0"/>
      <point x="331" y="1278.0"/>
      <point x="218" y="1278.0" type="curve" smooth="yes"/>
      <point x="145" y="1278.0"/>
      <point x="87" y="1225.0"/>
      <point x="59" y="1115.0" type="curve" smooth="yes"/>
      <point x="53" y="1094.0"/>
      <point x="61" y="1086.0"/>
      <point x="74" y="1086.0" type="curve" smooth="yes"/>
      <point x="89" y="1086.0"/>
      <point x="101" y="1098.0"/>
      <point x="106" y="1115.0" type="curve" smooth="yes"/>
      <point x="123" y="1181.0"/>
      <point x="152" y="1211.0"/>
      <point x="194" y="1211.0" type="curve" smooth="yes"/>
      <point x="267" y="1211.0"/>
      <point x="294" y="1081.0"/>
    </contour>
  </outline>
</glyph>
<glyph name="tildecmb" format="2">
  <advance width="573"/>
  <anchor x="322" y="995" name="center"/>
  <outline>
    <contour>
      <point x="406.0" y="1061.0" type="curve" smooth="yes"/>
      <point x="479.0" y="1061.0"/>
      <point x="536.1894968021504" y="1112.0"/>
      <point x="564.8960486656542" y="1223.0" type="curve" smooth="yes"/>
      <point x="570.8442531058397" y="1246.0"/>
      <point x="563.6545761963309" y="1253.0"/>
      <point x="550.6545761963309" y="1253.0" type="curve" smooth="yes"/>
      <point x="533.6545761963309" y="1253.0"/>
      <point x="522.8097827684161" y="1242.0"/>
      <point x="517.8960486656542" y="1223.0" type="curve" smooth="yes"/>
      <point x="501.6031408512332" y="1160.0"/>
      <point x="473.32737815184464" y="1128.0"/>
      <point x="431.32737815184464" y="1128.0" type="curve" smooth="yes"/>
      <point x="355.32737815184464" y="1128.0"/>
      <point x="330.9476641181104" y="1258.0"/>
      <point x="217.94766411811042" y="1258.0" type="curve" smooth="yes"/>
      <point x="144.94766411811042" y="1258.0"/>
      <point x="87.2409321472482" y="1205.0"/>
      <point x="58.79299786810026" y="1095.0" type="curve" smooth="yes"/>
      <point x="53.3620285966266" y="1074.0"/>
      <point x="61.29308792177943" y="1066.0"/>
      <point x="74.29308792177943" y="1066.0" type="curve" smooth="yes"/>
      <point x="89.29308792177943" y="1066.0"/>
      <point x="101.39649893405016" y="1078.0"/>
      <point x="105.79299786810026" y="1095.0" type="curve" smooth="yes"/>
      <point x="122.86175843558902" y="1161.0"/>
      <point x="151.62028596626573" y="1191.0"/>
      <point x="193.62028596626573" y="1191.0" type="curve" smooth="yes"/>
      <point x="266.62028596626567" y="1191.0"/>
      <point x="294.0" y="1061.0"/>
    </contour>
  </outline>
</glyph>
<glyph name="turnedcommaabovecmb" format="2">
  <advance width="225"/>
  <outline>
    <contour>
      <point x="137.743673737135" y="1356.0" type="curve" smooth="yes"/>
      <point x="56.81333484141555" y="1132.0" type="line" smooth="yes"/>
      <point x="53.96854141350076" y="1121.0"/>
      <point x="51.606512816874215" y="1108.0"/>
      <point x="62.08927764816241" y="1106.0" type="curve" smooth="yes"/>
      <point x="71.57204247945066" y="1104.0"/>
      <point x="81.3823655699419" y="1111.0"/>
      <point x="86.45130624478901" y="1119.0" type="curve" smooth="yes"/>
      <point x="218.38164514050845" y="1343.0" type="line" smooth="yes"/>
      <point x="239.69187817732046" y="1379.0"/>
      <point x="259.70902329235315" y="1410.0"/>
      <point x="256.17446290125037" y="1435.0" type="curve" smooth="yes"/>
      <point x="253.18825842963923" y="1454.8454076619214"/>
      <point x="231.72022278509866" y="1464.9444477590675"/>
      <point x="205.12266734143583" y="1458.0" type="curve" smooth="yes"/>
      <point x="168.13518610376735" y="1446.037494053977"/>
      <point x="158.10816145955238" y="1412.3650827620934"/>
    </contour>
  </outline>
</glyph>
